<svg width="21" height="21" viewBox="0 0 21 21" fill="none" xmlns="http://www.w3.org/2000/svg">
<path d="M20.6876 4.31988C19.9569 4.64363 19.1721 4.86238 18.3469 4.96126C19.1983 4.45182 19.8353 3.65004 20.1389 2.70551C19.3391 3.18062 18.4636 3.51505 17.5507 3.69426C16.9368 3.03876 16.1236 2.60429 15.2375 2.4583C14.3513 2.3123 13.4418 2.46295 12.65 2.88685C11.8583 3.31076 11.2286 3.9842 10.8588 4.80262C10.489 5.62105 10.3998 6.53866 10.6049 7.41301C8.98417 7.33163 7.39862 6.91036 5.9512 6.17655C4.50377 5.44273 3.22681 4.41277 2.2032 3.15351C1.8532 3.75726 1.65195 4.45726 1.65195 5.20276C1.65156 5.87388 1.81683 6.53472 2.13309 7.12665C2.44936 7.71858 2.90684 8.22329 3.46495 8.59601C2.81769 8.57541 2.18471 8.40052 1.6187 8.08588V8.13838C1.61863 9.07965 1.94423 9.99196 2.54023 10.7205C3.13624 11.449 3.96595 11.9489 4.88857 12.1354C4.28813 12.2979 3.65862 12.3218 3.04757 12.2054C3.30788 13.0153 3.81495 13.7235 4.49777 14.2309C5.1806 14.7384 6.005 15.0195 6.85557 15.0351C5.41168 16.1686 3.62848 16.7835 1.79282 16.7808C1.46766 16.7808 1.14277 16.7619 0.819824 16.7239C2.68312 17.9219 4.85212 18.5577 7.06732 18.5553C14.5661 18.5553 18.6654 12.3445 18.6654 6.95801C18.6654 6.78301 18.6611 6.60626 18.6532 6.43126C19.4506 5.85461 20.1389 5.14054 20.6858 4.32251L20.6876 4.31988Z" fill="#A59AB2"/>
</svg>
