<svg width="50" height="51" viewBox="0 0 50 51" fill="none" xmlns="http://www.w3.org/2000/svg">
<g clip-path="url(#clip0_5057:27008)">
<path d="M50 0.934326C50 1.07373 50 1.25961 50 1.39901C50 17.7559 50 34.1128 50 50.4697C50 50.9808 50.0929 50.9343 49.5353 50.9343C33.1784 50.9343 16.8216 50.9343 0.464684 50.9343C0.139405 50.9343 0 50.8879 0 50.5161C0 33.9734 0 17.4771 0 0.934326C6.41264 0.934326 12.8253 0.934326 19.2844 0.934326C19.4703 1.25961 19.3773 1.58488 19.4238 1.91016C19.7955 4.51239 21.7472 6.46407 24.3494 6.78935C27.5558 7.16109 30.1115 4.93061 30.5762 2.09604C30.6227 1.72429 30.6227 1.30607 30.6691 0.934326C37.1283 0.934326 43.5874 0.934326 50 0.934326Z" fill="#654FEF"/>
<path d="M17.2398 40.0142C17.4722 39.0848 17.658 38.2484 17.8439 37.4119C18.5409 34.345 19.238 31.2781 19.935 28.1647C19.9815 27.9324 20.0744 27.8394 20.3532 27.8394C21.1432 27.8394 21.9796 27.8394 22.7696 27.8394C23.0019 27.8394 23.0948 27.8859 23.1413 28.1647C23.8383 31.7428 24.5818 35.2744 25.2788 38.8524C25.3718 39.2242 25.4183 39.5959 25.5112 39.9677C25.6971 39.8748 25.6506 39.7353 25.6506 39.5959C26.487 35.7855 27.277 31.9751 28.067 28.1182C28.1134 27.8859 28.2064 27.793 28.4852 27.793C29.3216 27.793 30.158 27.8394 30.9945 27.793C31.3197 27.793 31.3197 27.8859 31.2733 28.1647C30.6227 30.8599 29.9722 33.6015 29.3216 36.2967C28.6246 39.2242 27.9275 42.1982 27.2305 45.1257C27.1841 45.4045 27.0446 45.451 26.7658 45.451C25.8829 45.451 25.0465 45.451 24.1636 45.451C23.9313 45.451 23.8383 45.4045 23.7919 45.1721C23.0948 41.7335 22.3978 38.2948 21.7008 34.8562C21.6078 34.3915 21.5149 33.9268 21.329 33.4621C21.1896 34.1127 21.0502 34.7168 20.9108 35.3673C20.2138 38.6666 19.4703 41.9194 18.7733 45.2186C18.7268 45.451 18.6803 45.5439 18.4015 45.5439C17.4722 45.5439 16.5893 45.5439 15.6599 45.5439C15.4275 45.5439 15.3346 45.451 15.2881 45.2651C14.3123 40.6647 13.29 36.0643 12.3142 31.464C12.0818 30.3952 11.8495 29.28 11.6171 28.2112C11.5707 27.9324 11.6171 27.8859 11.8959 27.8859C12.7788 27.8859 13.6617 27.8859 14.5446 27.8859C14.8235 27.8859 14.8699 27.9788 14.9164 28.2112C15.3811 30.7669 15.8458 33.3227 16.3569 35.8785C16.5893 37.1331 16.8216 38.4342 17.0539 39.6889C17.1469 39.7353 17.1469 39.8283 17.2398 40.0142Z" fill="#FEFEFE"/>
<path d="M38.0112 41.6406C37.1283 41.6406 36.2454 41.6406 35.316 41.6406C35.0837 41.6406 34.9907 41.6871 34.8978 41.9659C34.6655 43.0812 34.3867 44.1964 34.1543 45.3116C34.1079 45.544 34.0149 45.5904 33.829 45.5904C32.9461 45.5904 32.0168 45.5904 31.1339 45.5904C30.8551 45.5904 30.8086 45.4975 30.9015 45.2652C32.1562 40.1536 33.4108 34.9957 34.619 29.8841C34.7584 29.3265 34.8978 28.7224 35.0372 28.1648C35.0837 27.9789 35.1302 27.886 35.3625 27.886C36.9424 27.886 38.4759 27.886 40.0558 27.886C40.3346 27.886 40.3811 28.0719 40.4276 28.2577C41.5428 32.1146 42.7045 35.9715 43.8197 39.8284C44.3309 41.6406 44.8885 43.4529 45.4461 45.2652C45.5391 45.544 45.4926 45.5904 45.2138 45.5904C44.2844 45.5904 43.3551 45.5904 42.4257 45.5904C42.1934 45.5904 42.1004 45.544 42.0539 45.3116C41.7287 44.1964 41.4034 43.0812 41.1246 41.9659C41.0781 41.7336 40.9852 41.6406 40.7064 41.6406C39.8235 41.6406 38.8941 41.6406 38.0112 41.6406Z" fill="#FEFEFE"/>
<path d="M37.9183 38.7596C37.2677 38.7596 36.6172 38.7596 35.9666 38.7596C35.7807 38.7596 35.6878 38.7596 35.7343 38.4808C36.1989 36.4827 36.6172 34.531 37.0354 32.5328C37.0818 32.3005 37.1748 32.2076 37.4071 32.2076C37.7789 32.254 38.1971 32.0682 38.4759 32.3005C38.7082 32.4864 38.7082 32.9511 38.7547 33.2763C39.1729 34.9492 39.6376 36.6685 40.0558 38.3414C40.1487 38.7596 40.1487 38.7596 39.7305 38.7596C39.1264 38.7596 38.5224 38.7596 37.9183 38.7596Z" fill="#654FEF"/>
</g>
<defs>
<clipPath id="clip0_5057:27008">
<rect width="50" height="50" fill="white" transform="translate(0 0.934326)"/>
</clipPath>
</defs>
</svg>
