<svg width="53" height="60" viewBox="0 0 53 60" fill="none" xmlns="http://www.w3.org/2000/svg">
<path d="M26.1576 59.1112L25.3746 59.5604L25.5158 59.6438L26.1576 59.2748V60L52.2894 44.9158V43.2825L26.1576 58.3732V59.1112Z" fill="#282828"/>
<path d="M26.1575 54.1537L21.0813 57.0865L21.3316 57.2277L26.1575 54.4425V55.0489L52.2894 39.9647V38.4502L26.1575 53.5344V54.1537Z" fill="#282828"/>
<path d="M26.1575 49.193L16.7913 54.6061L17.1442 54.8083L26.1575 49.6037V50.0947L52.2894 35.0104V33.6178L26.1575 48.7053V49.193Z" fill="#282828"/>
<path d="M52.3022 14.7216L51.9172 14.5002L30.9803 26.5683L28.2657 25.0152L34.6222 21.3316V20.4107L48.3876 12.4723L47.7138 12.0841L34.6222 19.6438V18.8673L26.1094 23.7831L23.1734 22.076L44.1007 9.99519L43.5328 9.67432L22.6087 21.7552L19.7497 20.1059L24.3863 17.4266L23.52 16.926L39.8043 7.52447L39.3454 7.25815L23.0611 16.6597L22.2365 16.1848L17.5838 18.8673V19.8299L13.2232 22.3456L12.9023 22.1627L0 29.6005V30.884L14.0061 22.782L13.6852 22.5991L17.5838 20.353V21.338L20.4524 22.9937L17.417 24.7457L17.2052 24.6238L0 34.5708V35.7163L18.1967 25.2078L17.9849 25.0858L21.0204 23.3339L23.9564 25.0409L17.5838 28.6924V29.3599L0 39.5123V40.5359L17.5838 30.3834V31.1664L20.3144 32.729L0 44.4698V44.9222L0.397884 45.15L21.0942 33.2039L23.9146 34.8307L17.5838 38.4406V39.2716L3.90823 47.1683L4.58206 47.5598L17.5838 40.0449V41.0075L26.1094 36.0854L28.6764 37.571L26.1511 39.031V39.278L8.18225 49.6454L8.7502 49.9663L26.1383 39.9262V40.1701L29.6679 38.1389L32.4595 39.7433L27.9159 42.3873L28.317 42.6183L26.1608 43.8633V44.2323L12.4948 52.1194L12.9568 52.3857L26.1575 44.765V45.1308L29.4112 43.2536L30.0529 43.6323L34.6093 41.0075V40.2471L52.3022 30.0465V28.763L34.6222 38.9764V38.5047L31.8306 36.9004L52.3022 25.0923V23.9467L30.8519 36.3324L28.2849 34.8468L34.6222 31.1728V30.3353L52.3022 20.1508V19.1272L34.6222 29.3246V28.6828L31.7664 27.0303L52.3022 15.1773V14.7216ZM19.7497 29.931L26.1094 26.2474L28.824 27.8133L25.795 29.5652L22.4611 31.4905L19.7497 29.931ZM32.4691 29.931L26.0805 33.5858L23.2472 31.9493L26.1704 30.2615L29.6037 28.2785L32.4691 29.931Z" fill="#282828"/>
<path d="M9.38553 20.1284L35.5142 5.04092L35.1612 4.83556L9.02936 19.9198L8.60901 19.6791L0 24.643V26.0356L9.81229 20.3722L9.38553 20.1284Z" fill="#282828"/>
<path d="M5.08904 17.6544L31.2241 2.56378L30.9771 2.41618L4.83876 17.5068L4.30932 17.202L0 19.6888V21.2033L5.62169 17.956L5.08904 17.6544Z" fill="#282828"/>
<path d="M0.789349 15.1773L26.9309 0.086637L26.7897 0L0.648164 15.0971L0.00641883 14.7281L0 14.7345V16.3709L1.43109 15.5463L0.789349 15.1773Z" fill="#282828"/>
</svg>
