<svg width="51" height="51" viewBox="0 0 51 51" fill="none" xmlns="http://www.w3.org/2000/svg">
<path d="M49.81 24.7031C49.2047 24.326 48.5938 23.9546 47.9885 23.5775C47.7057 23.403 47.6547 22.9471 47.898 22.722C48.4241 22.2267 48.9615 21.7427 49.4876 21.2418C49.9967 20.7578 49.8779 20.1781 49.216 19.9305C48.5485 19.6772 47.881 19.4352 47.2135 19.1876C46.8741 19.0581 46.744 18.6304 46.9646 18.3265C47.3889 17.7411 47.8131 17.1614 48.2317 16.5705C48.6164 16.0246 48.3845 15.4843 47.717 15.3717C47.0042 15.2535 46.2858 15.141 45.573 15.0228C45.2053 14.9609 45.0017 14.5669 45.1544 14.2348C45.4486 13.5876 45.7484 12.946 46.0425 12.2988C46.1217 12.1187 46.1953 11.9386 46.1387 11.7303C46.0369 11.3589 45.7484 11.1563 45.3015 11.1731C44.5661 11.2013 43.8307 11.2294 43.101 11.2576C42.7785 11.2688 42.4957 10.9199 42.5692 10.6047C42.7389 9.88431 42.9086 9.16955 43.0784 8.44915C43.2254 7.83006 42.7842 7.38544 42.1676 7.52614C41.4435 7.69499 40.7251 7.86383 40.001 8.03267C39.6673 8.11146 39.3222 7.83569 39.3335 7.498C39.3561 6.79449 39.3844 6.09661 39.4127 5.39309C39.4467 4.62767 38.9432 4.28999 38.2417 4.61079C37.6195 4.89219 36.9972 5.17923 36.3693 5.46063C35.9733 5.64073 35.6 5.43812 35.5321 5.01601C35.4246 4.34064 35.3172 3.6709 35.1984 2.99553C35.0626 2.21885 34.5478 2.01061 33.9029 2.47211C33.3429 2.87171 32.7885 3.2713 32.2285 3.6709C31.9061 3.90165 31.4818 3.77783 31.346 3.41763C31.1028 2.7704 30.8596 2.12317 30.6163 1.47594C30.3448 0.761173 29.7791 0.642983 29.2587 1.19454C28.7665 1.71232 28.2857 2.23573 27.7935 2.75352C27.5729 2.98427 27.1204 2.93362 26.9507 2.66347C26.5717 2.06126 26.1983 1.45343 25.8193 0.851222C25.4233 0.215247 24.8407 0.215247 24.4447 0.845594C24.0713 1.44217 23.7036 2.03875 23.3303 2.63533C23.1323 2.9505 22.6967 2.99553 22.4365 2.71975C21.95 2.20759 21.4748 1.68981 20.9883 1.17765C20.4905 0.654239 19.9079 0.766801 19.6533 1.43654C19.4044 2.0894 19.1612 2.74789 18.9123 3.40075C18.7765 3.76658 18.3523 3.89602 18.0355 3.6709C17.4472 3.24879 16.8645 2.82106 16.2705 2.4102C15.7218 2.02749 15.1788 2.26387 15.0713 2.92799C14.9525 3.64839 14.8393 4.36878 14.7149 5.08918C14.6583 5.41561 14.2567 5.61822 13.9512 5.48314C13.3007 5.19048 12.6558 4.89219 12.0053 4.59953C11.779 4.49823 11.5527 4.41943 11.3038 4.52637C10.9814 4.66707 10.84 4.93159 10.8569 5.38184C10.8852 6.09098 10.9135 6.80575 10.9418 7.51489C10.9531 7.83006 10.5967 8.10584 10.2799 8.03267C9.56716 7.86383 8.8544 7.70061 8.14163 7.53177C7.47978 7.37418 7.04421 7.80755 7.2026 8.46603C7.3723 9.17517 7.53635 9.88431 7.70606 10.5935C7.78525 10.9199 7.50241 11.2632 7.15734 11.2519C6.44458 11.2238 5.72616 11.1957 5.0134 11.1675C4.29498 11.1394 3.94991 11.6403 4.23841 12.2819C4.52691 12.9235 4.82106 13.5538 5.11522 14.1954C5.29624 14.5838 5.08693 14.9552 4.65701 15.0284C3.97253 15.1353 3.2824 15.2479 2.59792 15.3605C1.87384 15.4843 1.65888 16.0133 2.07749 16.6043C2.4961 17.1896 2.92602 17.7749 3.34462 18.3602C3.52564 18.6135 3.38422 19.0525 3.09572 19.165C2.43953 19.4127 1.77768 19.6547 1.12148 19.9023C0.369119 20.1837 0.261639 20.7465 0.849952 21.2868C1.35907 21.7596 1.86819 22.2324 2.3773 22.7051C2.62055 22.9302 2.57529 23.3861 2.29245 23.5606C1.67585 23.9433 1.05926 24.3204 0.448316 24.6975C-0.151311 25.0745 -0.151311 25.6542 0.459629 26.0313C1.07623 26.414 1.69282 26.7911 2.30376 27.1738C2.56964 27.3427 2.62055 27.7985 2.38862 28.0124C1.86253 28.5077 1.32513 28.9917 0.79904 29.4926C0.272953 29.9879 0.397404 30.5619 1.07623 30.8152C1.73242 31.0628 2.39427 31.3048 3.05612 31.5525C3.41816 31.6876 3.54261 32.1097 3.31068 32.4305C2.88642 33.0158 2.4565 33.5955 2.04355 34.1864C1.6702 34.7155 1.90778 35.2614 2.55266 35.3683C3.2824 35.4921 4.01779 35.6047 4.75318 35.7285C5.06996 35.7792 5.27361 36.1844 5.1435 36.4714C4.83803 37.1412 4.52691 37.8109 4.22709 38.4863C3.96122 39.0885 4.30629 39.5894 4.96814 39.5669C5.32452 39.5556 5.6809 39.5331 6.04294 39.5162C6.04294 39.5219 6.04294 39.5275 6.04294 39.5275C6.42761 39.5106 6.81227 39.4881 7.2026 39.4768C7.50241 39.4656 7.79091 39.8258 7.71737 40.1184C7.54767 40.8388 7.37796 41.5536 7.20825 42.274C7.05552 42.9156 7.49675 43.3546 8.13032 43.2026C8.8544 43.0338 9.57282 42.865 10.2969 42.6961C10.608 42.6229 10.9587 42.9043 10.9474 43.2251C10.9191 43.9455 10.8909 44.6659 10.8626 45.3863C10.84 46.0955 11.3434 46.4388 11.994 46.1461C12.6275 45.8591 13.2554 45.5721 13.889 45.285C14.3019 45.0937 14.6696 45.2907 14.7432 45.7409C14.8563 46.45 14.9695 47.1648 15.0882 47.874C15.1278 48.1272 15.258 48.3298 15.4955 48.4424C15.784 48.5775 16.0443 48.5043 16.2875 48.3298C16.8758 47.9077 17.4641 47.4856 18.0524 47.0691C18.3579 46.8553 18.7878 46.9791 18.9179 47.3224C19.1612 47.9696 19.4044 48.6169 19.6477 49.2641C19.9305 50.007 20.4962 50.1083 21.0449 49.523C21.5201 49.0165 21.9953 48.5099 22.4761 48.0034C22.708 47.7614 23.1549 47.812 23.3359 48.0935C23.715 48.6957 24.0883 49.3035 24.4673 49.9057C24.8576 50.5248 25.4346 50.5248 25.825 49.9113C26.1927 49.326 26.5603 48.7351 26.928 48.1497C27.16 47.7839 27.5729 47.7389 27.8784 48.0597C28.3536 48.5662 28.8287 49.0784 29.3039 49.5793C29.7848 50.0858 30.3787 49.9732 30.6276 49.3204C30.8822 48.6563 31.1254 47.9921 31.3743 47.328C31.5044 46.9791 31.9287 46.8496 32.2342 47.0691C32.8168 47.4856 33.3938 47.9021 33.9765 48.3129C34.5591 48.7238 35.0965 48.4987 35.2153 47.8008C35.3341 47.0804 35.4473 46.36 35.5717 45.6452C35.6226 45.3357 36.0299 45.1331 36.3184 45.2625C36.969 45.5552 37.6138 45.8535 38.2644 46.1461C38.468 46.2362 38.6773 46.3319 38.9149 46.2474C39.2656 46.1236 39.4467 45.8647 39.4297 45.437C39.4071 44.7053 39.3731 43.9793 39.3448 43.2477C39.3335 42.9269 39.6842 42.6398 39.9897 42.7074C40.7138 42.8762 41.4322 43.045 42.1563 43.2139C42.7955 43.3659 43.2367 42.9269 43.0897 42.2909C42.92 41.5705 42.7503 40.8557 42.5806 40.1353C42.507 39.8258 42.7955 39.4768 43.118 39.4881C43.8307 39.5162 44.5491 39.5387 45.2619 39.5725C45.9916 39.6063 46.3424 39.1054 46.0482 38.4413C45.7654 37.8109 45.4712 37.1862 45.1827 36.5559C44.996 36.145 45.194 35.7792 45.6409 35.7116C46.3197 35.6047 46.9986 35.4978 47.6717 35.3796C48.4184 35.2501 48.6334 34.7324 48.1978 34.1245C47.7849 33.5448 47.3606 32.9708 46.9476 32.3911C46.7553 32.1265 46.8967 31.6819 47.2022 31.5694C47.8584 31.3217 48.5202 31.0797 49.1764 30.8321C49.9118 30.5563 50.0193 29.9935 49.448 29.4588C48.9389 28.9861 48.4297 28.5133 47.9206 28.0406C47.6604 27.7985 47.7057 27.3539 48.0055 27.1682C48.6108 26.7911 49.2217 26.4197 49.827 26.0426C50.4379 25.6655 50.4323 25.0914 49.81 24.7031ZM25.0783 4.75712C25.8759 4.76275 26.549 5.43249 26.5603 6.22605C26.5717 7.05901 25.9098 7.73438 25.0783 7.74001C24.258 7.74564 23.5792 7.09278 23.5622 6.27671C23.5452 5.455 24.2467 4.75149 25.0783 4.75712ZM5.71485 19.7053C5.72616 18.8893 6.39932 18.2308 7.21957 18.2308C8.05113 18.2308 8.72995 18.9118 8.71863 19.7335C8.70732 20.5439 8.0285 21.2137 7.21391 21.2137C6.38801 21.2193 5.70353 20.527 5.71485 19.7053ZM7.67212 30.2355C7.47413 30.2355 7.40624 30.1792 7.35533 29.9879C6.78399 27.8267 6.586 25.6374 6.81227 23.4086C6.82925 23.2285 6.93107 23.1948 7.04421 23.1441C7.98324 22.7276 8.92228 22.3111 9.86697 21.8947C10.7947 21.4894 11.0775 20.7747 10.6646 19.846C10.4779 19.4239 10.2856 19.0018 10.0763 18.5291C10.9191 18.5291 11.7111 18.5347 12.5031 18.5234C12.6728 18.5234 12.7067 18.5966 12.7011 18.7429C12.6897 18.9849 12.7011 19.227 12.7011 19.4746C12.7011 22.9471 12.6954 26.4197 12.7067 29.8978C12.7067 30.1736 12.6332 30.2355 12.3673 30.2299C10.8004 30.2243 9.23341 30.2242 7.67212 30.2355ZM13.9852 42.1727C13.1649 42.1783 12.4748 41.4917 12.4748 40.67C12.4748 39.8483 13.1649 39.1785 13.9965 39.1842C14.8111 39.1898 15.4786 39.8652 15.4729 40.6812C15.4729 41.4973 14.8054 42.1671 13.9852 42.1727ZM36.1374 42.2402C35.3285 42.2402 34.644 41.5649 34.6383 40.76C34.6327 39.9383 35.3058 39.263 36.1431 39.2573C36.9633 39.2517 37.6365 39.9215 37.6365 40.7319C37.6365 41.5592 36.9633 42.2402 36.1374 42.2402ZM39.1242 37.1412C38.9036 37.4001 38.6547 37.6308 38.4397 37.8897C38.3153 38.036 38.1908 38.0529 38.0211 38.0135C37.0878 37.8053 36.1487 37.6027 35.2097 37.417C34.2876 37.2312 33.654 37.6646 33.456 38.582C33.2298 39.6232 33.0035 40.6644 32.7829 41.7056C32.7546 41.8519 32.698 41.9307 32.5566 41.987C30.5824 42.8424 28.5233 43.349 26.3737 43.4897C23.319 43.6979 20.4 43.1632 17.6055 41.9419C17.4358 41.8688 17.3453 41.7787 17.3057 41.5874C17.0964 40.5518 16.8645 39.5219 16.6439 38.4919C16.4516 37.5858 15.784 37.1524 14.8789 37.3438C13.9512 37.5408 13.0235 37.7378 12.0958 37.9291C12.0166 37.946 11.9374 37.9966 11.8582 37.9179C11.3151 37.3494 10.8004 36.7585 10.3082 36.0775C10.5401 36.0775 10.7098 36.0775 10.8796 36.0775C15.6257 36.0775 20.3774 36.0775 25.1235 36.0775C25.1801 36.0775 25.2366 36.0718 25.2932 36.0775C25.5534 36.0944 25.6439 35.9818 25.6439 35.7116C25.6326 34.0795 25.6383 32.453 25.6383 30.8208C25.6383 30.4663 25.6157 30.4325 25.2593 30.4325C23.9299 30.4269 22.6006 30.4212 21.2712 30.4381C20.9883 30.4437 20.9318 30.3537 20.9374 30.0948C20.9544 29.1662 20.9544 28.2375 20.9431 27.3145C20.9431 27.1344 20.9714 27.0556 21.1807 27.0556C22.708 27.0669 24.2354 27.0556 25.7571 27.0613C27.0412 27.0669 28.116 27.9055 28.5289 29.2281C28.8344 30.2017 28.9815 31.2148 29.1964 32.2053C29.4171 33.2409 29.7338 34.2258 30.4579 35.0419C31.0406 35.706 31.7081 36.1056 32.6528 36.0831C34.9438 36.0381 37.2292 36.0662 39.5202 36.0662C39.6503 36.0662 39.7748 36.0662 39.9784 36.0662C39.6729 36.4658 39.4071 36.8091 39.1242 37.1412ZM20.9487 18.8893C20.9487 18.7035 20.9997 18.6529 21.1863 18.6529C23.1436 18.6585 25.1009 18.6473 27.0638 18.6585C27.7087 18.6641 28.3027 18.8836 28.8174 19.272C29.7904 19.998 29.615 21.2868 28.478 21.7877C27.901 22.041 27.2901 22.1198 26.6622 22.1254C26.2379 22.1254 25.8136 22.1254 25.3894 22.1254C24.9651 22.1254 24.5408 22.1254 24.1166 22.1254C23.138 22.1254 22.1593 22.1198 21.1807 22.1311C20.9997 22.1311 20.9431 22.086 20.9431 21.9003C20.9544 20.8929 20.9601 19.8911 20.9487 18.8893ZM43.5196 26.4084C43.5083 26.566 43.4461 26.5885 43.3159 26.5885C42.8181 26.5829 42.3147 26.5885 41.8169 26.5885C41.4096 26.5885 41.3587 26.6392 41.353 27.0331C41.3474 27.5453 41.3813 28.0631 41.2682 28.5696C41.0306 29.6333 40.3178 30.2468 39.226 30.3312C38.5585 30.3818 37.9363 30.2693 37.3876 29.8528C37.1783 29.6952 37.0425 29.4926 36.9916 29.2281C36.8615 28.5752 36.7087 27.9336 36.4825 27.3089C36.1148 26.2958 35.4699 25.4798 34.627 24.8157C34.429 24.6581 34.231 24.5005 34.0161 24.326C34.3102 24.1234 34.5874 23.9377 34.8589 23.7407C35.7754 23.0597 36.6182 22.2999 37.1839 21.2868C38.0664 19.7166 37.9872 18.1351 37.1104 16.6099C35.9733 14.6288 34.1518 13.5932 31.957 13.1261C31.4875 13.0248 31.0066 13.0023 30.5258 13.0023C24.2806 13.0023 18.0355 13.0023 11.7903 13.0023C11.6885 13.0023 11.5867 13.0023 11.4792 13.0023C11.4622 12.8616 11.5697 12.8166 11.6376 12.7434C14.3529 9.86743 17.6565 8.03267 21.5427 7.23348C21.7068 7.19971 21.786 7.26162 21.8765 7.3573C22.5723 8.08332 23.2624 8.81498 23.9639 9.52975C24.4786 10.0532 25.0726 10.1601 25.6496 9.85055C25.791 9.77738 25.9098 9.67045 26.0286 9.55789C26.7979 8.82623 27.5729 8.10021 28.3366 7.36293C28.461 7.24474 28.5685 7.19971 28.7552 7.23911C32.6641 8.0383 35.9733 9.9012 38.6943 12.7997C39.605 13.7677 40.38 14.837 41.0589 15.9739C41.1381 16.109 41.1154 16.2103 41.0589 16.3341C40.5271 17.5216 40.001 18.7035 39.4693 19.8911C39.0394 20.8535 39.3165 21.5514 40.2895 21.9791C41.2682 22.4068 42.2468 22.8458 43.2254 23.2679C43.4121 23.3467 43.48 23.448 43.4913 23.6394C43.5592 24.5736 43.5875 25.4854 43.5196 26.4084ZM42.8747 21.2812C42.0601 21.27 41.4039 20.6002 41.4096 19.7785C41.4152 18.9681 42.0828 18.2983 42.903 18.2927C43.7119 18.2871 44.419 18.9962 44.4077 19.801C44.3907 20.6283 43.7063 21.2925 42.8747 21.2812Z" fill="#282929"/>
</svg>
